HIERARCHY
ROOT joint_Root
{
	OFFSET 0.0 0.0 0.0
	CHANNELS 6 Xposition Yposition Zposition Zrotation Xrotation Yrotation 
	JOINT Hips
	{
		OFFSET -17.1583 93.1646 452.98
		CHANNELS 6 Xposition Yposition Zposition Zrotation Xrotation Yrotation 
		JOINT Spine
		{
			OFFSET 15.7357 0.0 0.0
			CHANNELS 6 Xposition Yposition Zposition Zrotation Xrotation Yrotation 
			JOINT Chest
			{
				OFFSET 8.98455 -0.406207 0.0
				CHANNELS 6 Xposition Yposition Zposition Zrotation Xrotation Yrotation 
				JOINT Neck
				{
					OFFSET 16.3773 0.0 0.0
					CHANNELS 6 Xposition Yposition Zposition Zrotation Xrotation Yrotation 
					JOINT Head
					{
						OFFSET 6.45672 0.0 0.0
						CHANNELS 6 Xposition Yposition Zposition Zrotation Xrotation Yrotation 
						End Site
						{
							OFFSET 0.0 0.0 0.0
						}
					}
				}
				JOINT Shoulder_L
				{
					OFFSET 12.9942 -0.242716 4.98039
					CHANNELS 6 Xposition Yposition Zposition Zrotation Xrotation Yrotation 
					JOINT UpperArm_L
					{
						OFFSET 5.34809 0.0 0.0
						CHANNELS 6 Xposition Yposition Zposition Zrotation Xrotation Yrotation 
						JOINT LowerArm_L
						{
							OFFSET 24.3286 1.87007e-05 0.0
							CHANNELS 6 Xposition Yposition Zposition Zrotation Xrotation Yrotation 
							JOINT Hand_L
							{
								OFFSET 22.2916 0.0 0.0
								CHANNELS 6 Xposition Yposition Zposition Zrotation Xrotation Yrotation 
								End Site
								{
									OFFSET 0.0 0.0 0.0
								}
							}
						}
					}
				}
				JOINT Shoulder_R
				{
					OFFSET 12.9945 -0.242716 -4.98039
					CHANNELS 6 Xposition Yposition Zposition Zrotation Xrotation Yrotation 
					JOINT UpperArm_R
					{
						OFFSET -5.34813 0.0 0.0
						CHANNELS 6 Xposition Yposition Zposition Zrotation Xrotation Yrotation 
						JOINT LowerArm_R
						{
							OFFSET -24.3289 0.000322201 0.0
							CHANNELS 6 Xposition Yposition Zposition Zrotation Xrotation Yrotation 
							JOINT Hand_R
							{
								OFFSET -22.2915 -0.000108084 0.0
								CHANNELS 6 Xposition Yposition Zposition Zrotation Xrotation Yrotation 
								End Site
								{
									OFFSET 0.0 0.0 0.0
								}
							}
						}
					}
				}
			}
		}
		JOINT UpperLeg_L
		{
			OFFSET -2.19248 -6.46944 0.0
			CHANNELS 6 Xposition Yposition Zposition Zrotation Xrotation Yrotation 
			JOINT LowerLeg_L
			{
				OFFSET 39.0811 0.0 -1.23785e-05
				CHANNELS 6 Xposition Yposition Zposition Zrotation Xrotation Yrotation 
				JOINT Foot_L
				{
					OFFSET 40.9854 0.0 -1.26872e-05
					CHANNELS 6 Xposition Yposition Zposition Zrotation Xrotation Yrotation 
					JOINT Toes_L
					{
						OFFSET 11.7543 0.0 0.0
						CHANNELS 6 Xposition Yposition Zposition Zrotation Xrotation Yrotation 
						End Site
						{
							OFFSET 0.0 0.0 0.0
						}
					}
				}
			}
		}
		JOINT UpperLeg_R
		{
			OFFSET -2.19251 6.46944 0.0
			CHANNELS 6 Xposition Yposition Zposition Zrotation Xrotation Yrotation 
			JOINT LowerLeg_R
			{
				OFFSET -39.0811 -0.00228153 -0.0401928
				CHANNELS 6 Xposition Yposition Zposition Zrotation Xrotation Yrotation 
				JOINT Foot_R
				{
					OFFSET -40.9854 0.0 0.0
					CHANNELS 6 Xposition Yposition Zposition Zrotation Xrotation Yrotation 
					JOINT Toes_R
					{
						OFFSET -11.7543 0.0 0.0
						CHANNELS 6 Xposition Yposition Zposition Zrotation Xrotation Yrotation 
						End Site
						{
							OFFSET 0.0 0.0 0.0
						}
					}
				}
			}
		}
	}
}
MOTION
Frames:	4
Frame Time:	0.0333333
0.000000 0.000000 0.000000 0.000000 0.000000 -0.000000 -3.743110 92.889700 0.846893 87.197300 2.000630 3.044650 15.735700 0.000005 -0.000001 70.898000 85.962600 -67.652100 8.984550 -0.406207 -0.000000 -0.045849 -2.862860 6.487820 16.377300 -0.000001 -0.000001 0.523177 2.274370 -0.743097 6.456720 -0.000001 -0.000000 -1.322910 4.662490 -5.125050 12.994200 -0.242716 4.980390 -92.824500 9.421650 -73.228200 5.348090 -0.000007 -0.000001 -74.704500 21.970700 3.193380 24.328600 0.000019 0.000005 10.767600 22.688300 -26.245000 22.291600 -0.000001 0.000005 -2.441670 5.060800 5.997730 12.994500 -0.242716 -4.980390 88.800800 4.019640 -73.373300 -5.348130 -0.000001 -0.000004 -64.920400 20.061700 -8.464000 -24.328900 0.000322 -0.000009 2.199170 9.272050 -13.411900 -22.291500 -0.000108 -0.000004 -8.450560 5.260370 1.156630 -2.192480 -6.469440 -0.000000 -169.636000 -4.512900 2.037280 39.081100 -0.000007 -0.000012 0.026255 -0.101897 14.449100 40.985400 -0.000006 -0.000013 -3.240370 15.172500 -69.047500 11.754300 -0.000000 0.000003 -0.000150 0.170120 -9.676690 -2.192510 6.469440 -0.000001 179.768000 7.830710 -176.832000 -39.081100 -0.002282 -0.040193 0.027454 -0.100655 13.476000 -40.985400 0.000008 0.000006 -3.290840 6.474260 -69.084600 -11.754300 -0.000006 -0.000006 -0.008602 0.260542 -5.990990
0.000000 0.000000 0.000000 0.000000 0.000000 -0.000000 -3.588610 92.936300 0.998882 87.189000 2.360740 2.620270 15.735700 0.000005 -0.000001 68.015700 85.844900 -64.683100 8.984550 -0.406207 -0.000000 0.046737 -3.334440 6.663940 16.377300 -0.000001 -0.000001 -0.373242 2.474110 -0.440215 6.456720 -0.000001 -0.000000 -2.157560 5.723740 -7.108820 12.994200 -0.242716 4.980390 -92.936300 9.880590 -73.357700 5.348090 -0.000007 -0.000001 -74.061300 20.686200 3.853000 24.328600 0.000019 0.000005 11.271600 22.423400 -27.586700 22.291600 -0.000001 0.000005 -3.453330 5.096540 5.192260 12.994500 -0.242716 -4.980390 88.843600 3.747560 -72.837900 -5.348130 -0.000001 -0.000004 -62.385000 16.026000 -10.189900 -24.328900 0.000322 -0.000009 2.401750 10.285400 -13.225100 -22.291500 -0.000108 -0.000004 -11.029900 5.259710 1.175090 -2.192480 -6.469440 -0.000000 -169.586000 -5.517600 1.875390 39.081100 -0.000007 -0.000012 0.029416 -0.117860 14.014200 40.985400 -0.000006 -0.000013 -3.047090 16.383500 -68.889900 11.754300 -0.000000 0.000003 -0.000112 0.169492 -9.702200 -2.192510 6.469440 -0.000001 179.547000 8.449630 -176.787000 -39.081100 -0.002282 -0.040193 0.015018 -0.051759 12.720300 -40.985400 0.000008 0.000006 -4.197630 6.924360 -68.311500 -11.754300 -0.000006 -0.000006 -0.008136 0.256806 -6.143620
0.000000 0.000000 0.000000 0.000000 0.000000 -0.000000 -3.457830 93.073400 1.024420 87.196200 2.679550 1.606310 15.735700 0.000005 -0.000001 66.058000 86.029700 -62.858600 8.984550 -0.406207 -0.000000 -0.403695 -3.449560 6.384770 16.377300 -0.000001 -0.000001 -1.179300 2.519850 -0.454599 6.456720 -0.000001 -0.000000 -3.114600 6.214580 -8.057640 12.994200 -0.242716 4.980390 -92.936400 9.897390 -73.383700 5.348090 -0.000007 -0.000001 -73.158400 19.700300 3.969630 24.328600 0.000019 0.000005 11.312900 22.035600 -28.067300 22.291600 -0.000001 0.000005 -3.943580 5.112790 4.819050 12.994500 -0.242716 -4.980390 88.934500 3.352070 -72.355700 -5.348130 -0.000001 -0.000004 -59.567000 10.957700 -11.556500 -24.328900 0.000322 -0.000009 2.258070 10.230600 -12.522600 -22.291500 -0.000108 -0.000004 -12.279600 5.261380 1.130130 -2.192480 -6.469440 -0.000000 -169.627000 -6.365640 1.440950 39.081100 -0.000007 -0.000012 0.028591 -0.126291 12.756200 40.985400 -0.000006 -0.000013 -3.436790 17.384600 -68.218700 11.754300 -0.000000 0.000003 -0.000347 0.173270 -9.548740 -2.192510 6.469440 -0.000001 179.322000 8.979810 -177.033000 -39.081100 -0.002282 -0.040193 0.000104 0.016403 11.148200 -40.985400 0.000008 0.000006 -6.179050 7.544100 -66.854600 -11.754300 -0.000006 -0.000006 -0.008304 0.258162 -6.088230
0.000000 0.000000 0.000000 0.000000 0.000000 -0.000000 -3.364420 93.275400 1.026800 87.215700 2.905910 0.512805 15.735700 0.000005 -0.000001 65.008500 86.340600 -62.084700 8.984550 -0.406207 -0.000000 -1.041190 -3.316010 5.816600 16.377300 -0.000001 -0.000001 -1.811250 2.434560 -0.635029 6.456720 -0.000001 -0.000000 -4.040410 6.234730 -8.870430 12.994200 -0.242716 4.980390 -92.859300 9.642910 -73.397000 5.348090 -0.000007 -0.000001 -72.195700 18.081400 3.916930 24.328600 0.000019 0.000005 11.630800 22.481500 -28.292700 22.291600 -0.000001 0.000005 -3.669360 5.110870 4.863540 12.994500 -0.242716 -4.980390 89.137700 2.645380 -71.939500 -5.348130 -0.000001 -0.000004 -56.092600 5.225310 -13.136500 -24.328900 0.000322 -0.000009 2.075050 10.971700 -10.784100 -22.291500 -0.000108 -0.000004 -12.600300 5.260670 1.149160 -2.192480 -6.469440 -0.000000 -169.529000 -6.452890 1.123520 39.081100 -0.000007 -0.000012 0.002744 -0.014482 10.730100 40.985400 -0.000006 -0.000013 -6.597940 17.930600 -65.447100 11.754300 -0.000000 0.000003 -0.000238 0.171545 -9.618810 -2.192510 6.469440 -0.000001 179.042000 9.759120 -176.731000 -39.081100 -0.002282 -0.040193 -0.003801 0.049440 8.220760 -40.985400 0.000008 0.000006 -8.752020 8.364350 -64.270200 -11.754300 -0.000006 -0.000006 -0.007835 0.254351 -6.243880
